<svg xmlns="http://www.w3.org/2000/svg" width="791.41" height="524.542" viewBox="0 0 791.41 524.542">
  <g id="covid_1" data-name="covid 1" transform="translate(-20.389 -24.462)">
    <g id="OBJECTS" transform="translate(20.389 24.462)">
      <circle id="Ellipse_126" data-name="Ellipse 126" cx="221.385" cy="221.385" r="221.385" transform="translate(169.283 28.198)" fill="#f9d8ad"/>
      <path id="Path_9660" data-name="Path 9660" d="M691.606,117.178a5.985,5.985,0,1,0,.7-3.047L689.1,113.4a20.684,20.684,0,0,0-2.192-12.738l7.432-4.626a5.81,5.81,0,0,0,2.708,1.447,6.035,6.035,0,1,0-4.374-4.1l-7.4,4.67a20.585,20.585,0,0,0-10.523-7.487l.734-3.212a6,6,0,1,0-3.037-.7l-.745,3.223a20.521,20.521,0,0,0-12.442,1.951L654.8,84.709a5.974,5.974,0,1,0-9.449-.855h0a5.963,5.963,0,0,0,6.807,2.521l4.44,7.081a20.585,20.585,0,0,0-7.772,10.721l-3.212-.734a5.985,5.985,0,1,0-.7,3.047l3.223.734a20.531,20.531,0,0,0,2.192,12.738l-6.807,4.264a5.963,5.963,0,1,0-.866,9.449h0a5.974,5.974,0,0,0,2.521-6.807l6.807-4.264a20.63,20.63,0,0,0,10.523,7.487l-.734,3.212a5.985,5.985,0,1,0,3.047.7l.734-3.223a20.532,20.532,0,0,0,13.034-2.324l4.45,7.081a5.953,5.953,0,1,0,5.711-1.787,5.82,5.82,0,0,0-3.069.132l-4.494-7.114a20.63,20.63,0,0,0,7.2-10.326ZM664.213,99.146a3.815,3.815,0,1,1,2.861,4.571,3.815,3.815,0,0,1-2.861-4.571Zm3.815,13.034a2.653,2.653,0,1,1,3.179-2A2.653,2.653,0,0,1,668.027,112.179Zm8.561-1.644a4.009,4.009,0,1,0-.022,0Z" transform="translate(40.533 -17.279)" fill="#f9d8ad"/>
      <path id="Path_9661" data-name="Path 9661" d="M97.574,116.336a5.985,5.985,0,1,0-.91-2.982l-3.157.965a20.685,20.685,0,0,0-8.21-9.975l4.1-7.673a5.955,5.955,0,0,0,7.016-7.553,5.985,5.985,0,1,0-9.8,6.084l-4.1,7.673a20.564,20.564,0,0,0-12.858-1.25l-.932-3.146a5.985,5.985,0,1,0-2.993.91l.965,3.157a20.531,20.531,0,0,0-9.789,7.914l-7.41-3.946a5.974,5.974,0,1,0-8.616,3.957h0a5.93,5.93,0,0,0,7.147-1.195L55.4,113.2a20.619,20.619,0,0,0-1.392,13.154l-3.157.954a5.985,5.985,0,1,0,.91,2.993l3.157-.965a20.608,20.608,0,0,0,8.21,9.964l-3.771,7.1A5.974,5.974,0,0,0,55.228,157.5a6.051,6.051,0,0,0,4.56.438,5.963,5.963,0,0,0,3.53-2.916h0a5.963,5.963,0,0,0-1.173-7.136l3.771-7.092a20.575,20.575,0,0,0,12.836,1.228l.932,3.179a5.985,5.985,0,1,0,2.982-.91l-.965-3.157a20.6,20.6,0,0,0,10.151-8.517l7.41,3.924a5.9,5.9,0,0,0,3,6.577,6,6,0,1,0-1.535-9.361l-7.41-3.946a20.553,20.553,0,0,0,1.1-12.54Zm-32.721-1.962a3.8,3.8,0,1,1,1.853,2.254A3.815,3.815,0,0,1,64.853,114.374Zm9.767,9.383a2.653,2.653,0,1,1,1.765-3.289,2.653,2.653,0,0,1-1.765,3.289Zm6.577-5.689a1.806,1.806,0,1,1,.022,0Z" transform="translate(-16.774 -16.305)" fill="#f9d8ad"/>
      <path id="Path_9662" data-name="Path 9662" d="M87.888,432.28a4.111,4.111,0,1,0,0-2.192H85.619a14.25,14.25,0,0,0-3.519-8.112l4.187-4.3a4.165,4.165,0,0,0,2.05.526,4.172,4.172,0,1,0-3.585-2.028l-4.2,4.3a14.251,14.251,0,0,0-8.265-3.288v-2.269a4.1,4.1,0,1,0-2.192,0v2.269a14.251,14.251,0,0,0-8,3.354l-4.111-4.012a4.122,4.122,0,1,0-6.467.954h0a4.056,4.056,0,0,0,4.966.581l4.133,4.023a14.141,14.141,0,0,0-3.464,8.441H54.882a4.133,4.133,0,1,0,0,2.192h2.28a14.141,14.141,0,0,0,3.508,8.167l-3.859,3.968a4.111,4.111,0,1,0,.965,6.467h0a4.122,4.122,0,0,0,.581-4.966l3.859-3.968a14.184,14.184,0,0,0,8.265,3.289v2.28a4.111,4.111,0,1,0,2.192,0v-2.269A14.25,14.25,0,0,0,81,441.948l4.133,4.023a4,4,0,0,0-.537,2.05,4.124,4.124,0,1,0,6.994-3.014,4.067,4.067,0,0,0-2.916-1.162,4,4,0,0,0-2.039.581l-4.133-4.034a14.184,14.184,0,0,0,3.135-8.09Zm-21.277-7.6a2.62,2.62,0,1,1,.794,1.847,2.631,2.631,0,0,1-.794-1.847Zm4.659,8.079a1.831,1.831,0,1,1,1.8-1.842,1.831,1.831,0,0,1-1.8,1.842Zm5.481-2.488a2.088,2.088,0,1,0-.022,0Z" transform="translate(-15.902 14.67)" fill="#f9d8ad"/>
      <path id="Path_9663" data-name="Path 9663" d="M589.257,63.818a5.064,5.064,0,1,0,0-2.642h-2.8a17.451,17.451,0,0,0-4.319-10.041l5.119-5.262a4.966,4.966,0,0,0,2.51.658,5.07,5.07,0,1,0-5.13-5,4.988,4.988,0,0,0,.724,2.5l-5.152,5.284a17.539,17.539,0,0,0-10.162-4.056V42.475a5.075,5.075,0,1,0-2.642,0v2.8a17.375,17.375,0,0,0-9.866,4.122l-5.086-4.966a5.064,5.064,0,1,0-7.947,1.217h0a5.064,5.064,0,0,0,3.606,1.436,5.152,5.152,0,0,0,2.5-.723l5.064,4.933a17.539,17.539,0,0,0-4.253,10.381h-2.784a5.064,5.064,0,1,0,0,2.642h2.784a17.474,17.474,0,0,0,4.385,10.052l-4.725,4.867a5.058,5.058,0,1,0,1.173,7.947h0a5.053,5.053,0,0,0,.724-6.095l4.681-4.878a17.374,17.374,0,0,0,10.162,4.056v2.8a5.075,5.075,0,1,0,2.653,0v-2.8a17.539,17.539,0,0,0,10.271-4.516l5.064,4.933a5.22,5.22,0,1,0,1.885-1.9l-5.086-4.955a17.54,17.54,0,0,0,3.859-9.942Zm-26.111-9.339a3.234,3.234,0,1,1,.982,2.278,3.234,3.234,0,0,1-.982-2.278Zm5.722,9.942a2.236,2.236,0,1,0-.033,0Zm6.709-3.058a2.489,2.489,0,1,0-.033,0Z" transform="translate(31.412 -21.337)" fill="#f9d8ad"/>
      <path id="Path_9664" data-name="Path 9664" d="M469.493,80.771a3.289,3.289,0,1,0,0-1.688h-1.787a11.181,11.181,0,0,0-2.773-6.446l3.289-3.4a3.124,3.124,0,0,0,1.611.417,3.25,3.25,0,1,0-.088-6.5,3.245,3.245,0,0,0-2.74,4.9l-3.289,3.4a11.2,11.2,0,0,0-6.577-2.609V67.057a3.288,3.288,0,1,0-1.688,0v1.787a11.247,11.247,0,0,0-6.314,2.653l-3.289-3.19a3.289,3.289,0,1,0-5.1.756h0a3.289,3.289,0,0,0,2.313.921,3.113,3.113,0,0,0,1.6-.46l3.289,3.168a11.28,11.28,0,0,0-2.729,6.665h-1.787a3.288,3.288,0,1,0,0,1.7h1.787A11.28,11.28,0,0,0,448,87.5L445,90.636a3.237,3.237,0,1,0,.756,5.1h0a3.289,3.289,0,0,0,.45-3.913l3.047-3.124a11.181,11.181,0,0,0,6.522,2.6v1.8a3.289,3.289,0,1,0,1.7,0v-1.8a11.148,11.148,0,0,0,6.577-2.9l3.289,3.168a3.729,3.729,0,1,0,2.784-1.677,3.168,3.168,0,0,0-1.6.471l-3.289-3.19a11.192,11.192,0,0,0,2.456-6.391Zm-16.771-5.985a2.045,2.045,0,1,1,0,.011Zm3.672,6.38a.612.612,0,1,1,0,.011ZM460.7,79.2a.683.683,0,1,1,0,.011Z" transform="translate(21.628 -18.635)" fill="#fff"/>
      <path id="Path_9665" data-name="Path 9665" d="M289.759,116.171a3.289,3.289,0,1,0,0-1.7h-1.8a11.214,11.214,0,0,0-2.773-6.446l3.289-3.387a3.179,3.179,0,0,0,1.611.417,3.245,3.245,0,1,0-3.278-3.2,3.168,3.168,0,0,0,.46,1.611l-3.289,3.387a11.181,11.181,0,0,0-6.511-2.6v-1.8a3.289,3.289,0,1,0-1.7,0v1.8a11.159,11.159,0,0,0-6.314,2.642l-3.288-3.179a3.289,3.289,0,1,0-5.1.756h0a3.218,3.218,0,0,0,3.913.46l3.288,3.168a11.214,11.214,0,0,0-2.729,6.654h-1.787a3.289,3.289,0,1,0,0,1.7h1.8a11.17,11.17,0,0,0,2.762,6.446l-3.036,3.124a3.289,3.289,0,1,0,.756,5.1h0a3.289,3.289,0,0,0,.46-3.913l3.036-3.124a11.269,11.269,0,0,0,6.522,2.609v1.787a3.289,3.289,0,1,0,1.7,0v-1.787a11.214,11.214,0,0,0,6.577-2.9l3.289,3.168a3.179,3.179,0,0,0-.417,1.611,3.277,3.277,0,1,0,1.6-2.828l-3.289-3.179a11.258,11.258,0,0,0,2.477-6.38Zm-16.783-6a2.083,2.083,0,1,1,2.1,2.05,2.083,2.083,0,0,1-2.1-2.05Zm3.683,6.38a1.394,1.394,0,1,1,.044,0Zm4.3-1.962a.684.684,0,1,1,0,.044Z" transform="translate(4.347 -15.23)" fill="#fff"/>
      <path id="Path_9666" data-name="Path 9666" d="M368.575,49.991a3.946,3.946,0,1,0,0-2.061h-2.192a13.483,13.483,0,0,0-3.42-7.794l4.023-4.122a3.891,3.891,0,0,0,1.951.5,3.952,3.952,0,1,0-3.431-1.94L361.494,38.7a13.582,13.582,0,0,0-7.914-3.168V33.34a3.946,3.946,0,1,0-2.061,0v2.192a13.625,13.625,0,0,0-7.673,3.212l-3.9-3.837a3.935,3.935,0,1,0-6.182.921h0a3.946,3.946,0,0,0,2.806,1.1,4,4,0,0,0,1.94-.559l3.946,3.848a13.691,13.691,0,0,0-3.289,8.09h-2.192a3.957,3.957,0,1,0,0,2.061h2.192A13.615,13.615,0,0,0,342.53,58.2l-3.683,3.8a3.935,3.935,0,1,0,.921,6.182h0a3.935,3.935,0,0,0,.548-4.746l3.705-3.793a13.6,13.6,0,0,0,7.914,3.157V65A3.957,3.957,0,1,0,354,65V62.806a13.615,13.615,0,0,0,8-3.53l3.946,3.848a3.935,3.935,0,1,0,3.387-2.039,4.034,4.034,0,0,0-1.951.559l-3.968-3.859a13.626,13.626,0,0,0,3.014-7.739Zm-20.356-7.268a2.521,2.521,0,1,1,2.543,2.477,2.521,2.521,0,0,1-2.543-2.477Zm4.451,7.739a1.743,1.743,0,1,1,1.237-.526A1.754,1.754,0,0,1,352.67,50.463Zm5.229-2.39a1.984,1.984,0,1,1,1.962-2.006,1.962,1.962,0,0,1-1.962,2.006Z" transform="translate(11.262 -22.002)" fill="#fff"/>
      <path id="Path_9667" data-name="Path 9667" d="M707.4,415.541a5.075,5.075,0,1,0-.6-2.576l-2.73.647a17.44,17.44,0,0,0-6.391-8.89l3.891-6.292a5.056,5.056,0,1,0-3.5-3.683,5,5,0,0,0,1.25,2.291l-3.9,6.259a17.539,17.539,0,0,0-10.808-1.765l-.647-2.719a5.075,5.075,0,1,0-2.576.6l.647,2.719a17.538,17.538,0,0,0-8.769,6.161l-6.051-3.749a5.064,5.064,0,1,0-7.509,2.861h0a5.054,5.054,0,0,0,3.826.625,5.164,5.164,0,0,0,2.291-1.239l6.018,3.727a17.463,17.463,0,0,0-1.907,11.071l-2.729.636a5.053,5.053,0,1,0,.614,2.576l2.718-.636a17.539,17.539,0,0,0,6.391,8.89l-3.508,5.81a5.062,5.062,0,1,0,2.872,7.509h0a5.076,5.076,0,0,0-.614-6.117l3.584-5.788a17.539,17.539,0,0,0,10.808,1.776l.636,2.719a5.075,5.075,0,1,0,2.576-.6l-.636-2.73A17.418,17.418,0,0,0,701.7,429l6.018,3.727a5.064,5.064,0,1,0,3.683-3.486,4.933,4.933,0,0,0-2.291,1.239l-6.095-3.749a17.407,17.407,0,0,0,1.622-10.545Zm-27.591-3.475a3.289,3.289,0,1,1,3.891,2.412,3.289,3.289,0,0,1-3.891-2.412Zm7.75,8.484a2.247,2.247,0,1,1,1.666-2.708,2.247,2.247,0,0,1-1.666,2.708Zm5.9-4.451a2.543,2.543,0,1,1,1.582-1.136A2.543,2.543,0,0,1,693.453,416.1Z" transform="translate(42.819 12.905)" fill="#f9d8ad"/>
      <path id="Path_9668" data-name="Path 9668" d="M206.221,49.374a5.075,5.075,0,1,0-.6-2.576l-2.719.636a17.539,17.539,0,0,0-6.358-8.89l3.9-6.281a5.071,5.071,0,0,0,4.111-9.175,5,5,0,0,0-3.826-.636,5.075,5.075,0,0,0-3.826,6.095,4.965,4.965,0,0,0,1.25,2.28l-3.9,6.292a17.539,17.539,0,0,0-10.808-1.776l-.636-2.719a5.075,5.075,0,1,0-2.576.6l.636,2.719a17.539,17.539,0,0,0-8.769,6.161l-6-3.694a5.064,5.064,0,1,0-7.52,2.872h0a5.075,5.075,0,0,0,3.837.614,4.966,4.966,0,0,0,2.335-1.293l6.029,3.738a17.539,17.539,0,0,0-1.918,11.06l-2.719.636a5.075,5.075,0,1,0,.6,2.576l2.73-.636a17.44,17.44,0,0,0,6.336,8.934L172.228,72.7A5.053,5.053,0,1,0,175.1,80.21h0a5.064,5.064,0,0,0-.625-6.117l3.585-5.788a17.539,17.539,0,0,0,10.808,1.765l.647,2.719a5.075,5.075,0,1,0,2.576-.6l-.647-2.719a17.539,17.539,0,0,0,9.065-6.643l6.018,3.738a4.966,4.966,0,0,0-.1,2.6,5.1,5.1,0,1,0,1.48-4.856l-6.051-3.749a17.407,17.407,0,0,0,1.633-10.545Zm-27.569-3.486A3.234,3.234,0,1,1,180.1,47.9a3.234,3.234,0,0,1-1.445-2.013Zm7.739,8.484a2.192,2.192,0,1,1,1.421-.993A2.192,2.192,0,0,1,186.391,54.373Zm5.9-4.44a2.554,2.554,0,1,1,1.9-3.069,2.554,2.554,0,0,1-1.9,3.069Z" transform="translate(-5.379 -22.316)" fill="#f9d8ad"/>
      <path id="Path_9669" data-name="Path 9669" d="M576.042,395.83,583.8,509.35H503.4V492.294l-4.823,17.056H391.5l21.419-113.52Z" transform="translate(17.255 13.609)" fill="#f73c4f"/>
      <path id="Path_9670" data-name="Path 9670" d="M407.15,418.433l4.22-22.6H574.537l.877,3.431C563.06,400.993,450.625,419.376,407.15,418.433Z" transform="translate(18.76 13.609)" fill="#ba2f42"/>
      <path id="Path_9671" data-name="Path 9671" d="M493.58,486.7l4.845-27.986,24.116-4.67" transform="translate(27.073 19.208)" fill="none" stroke="#ba2f42" stroke-linecap="round" stroke-linejoin="round" stroke-width="1.5"/>
      <line id="Line_6" data-name="Line 6" x1="16.75" y2="96.979" transform="translate(422.972 425.98)" fill="none" stroke="#ba2f42" stroke-linecap="round" stroke-linejoin="round" stroke-width="1.5"/>
      <path id="Path_9672" data-name="Path 9672" d="M434.774,410.92s-4.385,38.816-21.365,40.219" transform="translate(19.362 15.06)" fill="none" stroke="#ba2f42" stroke-linecap="round" stroke-linejoin="round" stroke-width="1.5"/>
      <path id="Path_9673" data-name="Path 9673" d="M508.16,443.218h0V395.83h11.729v35.659A11.729,11.729,0,0,1,508.16,443.218Z" transform="translate(28.475 13.609)" fill="none" stroke="#ba2f42" stroke-linecap="round" stroke-linejoin="round" stroke-width="1.5"/>
      <line id="Line_7" data-name="Line 7" y2="18.931" transform="translate(536.635 456.827)" fill="none" stroke="#ba2f42" stroke-linecap="round" stroke-linejoin="round" stroke-width="1.5"/>
      <path id="Path_9674" data-name="Path 9674" d="M739.907,228.972l-49.756,6.292a7.224,7.224,0,0,1-8.057-6.248h0a7.235,7.235,0,0,1,6.248-8.068l49.745-6.3a7.257,7.257,0,0,1,8.068,6.259h0a7.246,7.246,0,0,1-6.248,8.068Z" transform="translate(45.199 -3.823)" fill="#ffa297"/>
      <path id="Path_9675" data-name="Path 9675" d="M683.813,229.476c-4.955,11.28-16.037,38.366-20.466,64.51a13.154,13.154,0,0,0,12.99,15.434h46.938a13.154,13.154,0,0,0,13.154-11.981,69.059,69.059,0,0,0-12.847-47.552,37.554,37.554,0,0,1-6.654-17.824,9.087,9.087,0,0,0-9.033-8.013H692.177A9.1,9.1,0,0,0,683.813,229.476Z" transform="translate(43.382 -2.913)" fill="#ffd774"/>
      <path id="Path_9676" data-name="Path 9676" d="M674.781,293.986c4.385-26.122,15.511-53.23,20.466-64.51a9.087,9.087,0,0,1,8.32-5.426H692.177a9.1,9.1,0,0,0-8.364,5.426c-4.955,11.28-16.037,38.366-20.466,64.51a13.154,13.154,0,0,0,12.99,15.434h11.4a13.154,13.154,0,0,1-12.957-15.434Z" transform="translate(43.382 -2.913)" fill="#e4911f"/>
      <rect id="Rectangle_1112" data-name="Rectangle 1112" width="19.95" height="9.12" transform="translate(733.685 212.017)" fill="#f8efea"/>
      <path id="Path_9677" data-name="Path 9677" d="M733.351,197.174l-53.581-3.8V206.1l11.028,5.13v6.654h15.763v-5.316l6.533-1.25,12.4,23.283,5.021-1.162-5.656-24.379,8.5-1.622Z" transform="translate(44.981 -5.864)" fill="#f73c4f"/>
      <path id="Path_9678" data-name="Path 9678" d="M689.83,209.66,705.593,211v5.316H689.83Z" transform="translate(45.949 -4.297)" fill="#ba2f42"/>
      <line id="Line_8" data-name="Line 8" y1="2.258" x2="11.762" transform="translate(758.075 203.192)" fill="none" stroke="#ba2f42" stroke-linecap="round" stroke-linejoin="round" stroke-width="1.5"/>
      <path id="Path_9679" data-name="Path 9679" d="M728.65,197.79l2.565,1.14v6.062l-2.565.636Z" transform="translate(49.682 -5.439)" fill="#faab44"/>
      <path id="Path_9680" data-name="Path 9680" d="M725.817,249.741a5.415,5.415,0,0,0,1.557-3.672c0-2.949-2.708-5.481-6.577-6.577a5.567,5.567,0,0,0,1.918-4.034c0-3.891-4.713-7.037-10.512-7.037s-10.512,3.146-10.512,7.037c0,2.949,2.708,5.481,6.577,6.511a5.579,5.579,0,0,0-1.919,4.045c0,3.025,2.872,5.6,6.873,6.577a4.758,4.758,0,0,0-.987,2.817c0,3.519,4.253,6.369,9.5,6.369s9.5-2.85,9.5-6.369C731.243,252.942,729.018,250.76,725.817,249.741Z" transform="translate(47.089 -2.493)" fill="#ffa297"/>
      <path id="Path_9681" data-name="Path 9681" d="M711.324,215.615c-4.133-.34-8.254.811-12.442.691s-7.947-.5-12.058-.351c-10.436.384-13.878,7.476-19.578,13.812a94.606,94.606,0,0,0-10.271,12.913c-1.381,2.258-52.5,76.623-52.5,76.623l-5.985-9.438L529.15,352.616,558.3,398.853c15.631,18.558,43.036,16.991,43.036,16.991,65.409-2.883,86.6-132.309,87.585-138.5a35.71,35.71,0,0,0,3.87-8.134,45.158,45.158,0,0,0,2.039-11.718c.165-3.289-.932-6.577.1-9.712,2-6.117,5.645-12.453,5.316-19.041,4.505-.559,12.518-1.513,15.982-4.231C721,220.789,716.75,216.043,711.324,215.615Z" transform="translate(30.494 -3.73)" fill="#ffa297"/>
      <path id="Path_9682" data-name="Path 9682" d="M456.95,175.3c-.581-8.769-3.289-17.342-1.885-26.374.921-6.128,2.708-14.777,10.14-14.623.132-6.5,10.743-7.816,15.346-8,4.812-.2,9.625.362,14.393,0,3.672-.285,5.766-1.864,9.1-2.883,5.13-1.546,5.349,1.885,7.388,4.812,2.7,3.9,11.729-.395,15.982.866a12.058,12.058,0,0,1,8.769,13.834c-.636,4.593-3.65,7.322-5.141,11.258,3.859.1,5.371,3.628,4.264,7.07-1.392,4.3-6.2,7.487-10.118,9.285a65.063,65.063,0,0,1-8.638,2.664c-4.187,1.261-8.123,3.289-12.431,4.133a145.452,145.452,0,0,1-27.81,2.192,56.815,56.815,0,0,1-15.917-2.258,13.944,13.944,0,0,1-2.4-.976C457.115,175.833,457.224,175.406,456.95,175.3Z" transform="translate(23.33 -12.629)" fill="#641216"/>
      <path id="Path_9683" data-name="Path 9683" d="M598.534,301.59,529.19,344.341l25.42,40.329C563.862,343.113,598.534,301.59,598.534,301.59Z" transform="translate(30.498 4.545)" fill="#f55c2b"/>
      <path id="Path_9684" data-name="Path 9684" d="M495.965,214.953a70.706,70.706,0,0,0-20.882.121c-20.586,3.179-73.795,13.45-80.613,44.132C386.8,293.659,382.96,424.63,382.96,424.63H582.947l-5.481-88L614.8,308.358l-37.336-52.189S558.393,223.952,495.965,214.953Z" transform="translate(16.433 -3.857)" fill="#6c7cbe"/>
      <path id="Path_9685" data-name="Path 9685" d="M497.837,250.864c27.668-1.513,31.406-17.035,31.34-25.585a166.841,166.841,0,0,0-39.254-10.326,70.7,70.7,0,0,0-20.882.121c-5.766.888-14.1,2.335-23.25,4.637h0S448.333,253.56,497.837,250.864Z" transform="translate(22.476 -3.857)" fill="#fff"/>
      <path id="Path_9686" data-name="Path 9686" d="M496.058,241.173c15.993,0,20.948-3.837,23.425-19.128a175.279,175.279,0,0,0-30.507-7.092,70.706,70.706,0,0,0-20.882.121c-3.574.548-7.849,1.326-12.474,2.379C455.916,234.936,478.5,241.173,496.058,241.173Z" transform="translate(23.422 -3.857)" fill="#ffa297"/>
      <rect id="Rectangle_1113" data-name="Rectangle 1113" width="35.155" height="49.284" transform="translate(490.968 173.201)" fill="#ffa297"/>
      <path id="Path_9687" data-name="Path 9687" d="M466.5,180.32v14s18.175,21.858,35.155,23.184V180.32Z" transform="translate(24.468 -7.119)" fill="#f55c2b"/>
      <path id="Path_9688" data-name="Path 9688" d="M599.14,310.2s-10.5,8.66-14.02,17.2" transform="translate(35.877 5.373)" fill="none" stroke="#f55c2b" stroke-linecap="round" stroke-linejoin="round" stroke-width="1.5"/>
      <path id="Path_9689" data-name="Path 9689" d="M639.06,290.47v-.34" transform="translate(41.065 3.443)" fill="none"/>
      <path id="Path_9690" data-name="Path 9690" d="M456.307,515.8H382.94l3.486-183.49h69.881Z" transform="translate(16.432 7.499)" fill="#ffa297"/>
      <path id="Path_9691" data-name="Path 9691" d="M386.176,332.31h69.882L385.54,344.083Z" transform="translate(16.682 7.499)" fill="#f55c2b"/>
      <line id="Line_9" data-name="Line 9" y1="45.415" x2="2.017" transform="translate(472.739 294.395)" fill="none" stroke="#376f92" stroke-linecap="round" stroke-linejoin="round" stroke-width="1.5"/>
      <line id="Line_10" data-name="Line 10" x1="4.275" y1="39.199" transform="translate(589.581 293.573)" fill="none" stroke="#376f92" stroke-linecap="round" stroke-linejoin="round" stroke-width="1.5"/>
      <path id="Path_9692" data-name="Path 9692" d="M485.669,153.28c-2.138,13.571-21.726,17.342-21.726,17.342l-3.157-9.57a7.235,7.235,0,0,0-6.007-.614c-4.209,1.535-6.051,7.048-4.122,12.321,1.776,4.867,6.161,7.816,10.129,7.016,2.773,17.265,16.684,30.408,33.434,30.408,18.745,0,33.982-16.443,33.982-36.755a39.356,39.356,0,0,0-2.773-14.546C511.627,162.9,485.669,153.28,485.669,153.28Z" transform="translate(22.871 -9.72)" fill="#ffa297"/>
      <path id="Path_9693" data-name="Path 9693" d="M462.244,167.59s-13.384,39.572,36.349,45.623c0,0,20.827,3.464,26.012-8.276,5-11.269,1.217-22.362,1.217-22.362a110.987,110.987,0,0,1-45.053-3.9s-7.29-7.037-7.542-15.072Z" transform="translate(23.901 -8.727)" fill="#641216"/>
      <line id="Line_11" data-name="Line 11" x1="9.778" y2="1.732" transform="translate(721.002 225.006)" fill="none" stroke="#f55c2b" stroke-linecap="round" stroke-linejoin="round" stroke-width="1.5"/>
      <path id="Path_9694" data-name="Path 9694" d="M680.739,246.12A20.16,20.16,0,0,1,669.7,256.172" transform="translate(44.012 -0.79)" fill="none" stroke="#f55c2b" stroke-linecap="round" stroke-linejoin="round" stroke-width="1.5"/>
      <path id="Path_9695" data-name="Path 9695" d="M707.69,241.059s6.961-3.289,12.562-2.477" transform="translate(47.666 -1.528)" fill="none" stroke="#f55c2b" stroke-linecap="round" stroke-linejoin="round" stroke-width="1.5"/>
      <path id="Path_9696" data-name="Path 9696" d="M712.21,250.786a27.153,27.153,0,0,1,12.6-2.916" transform="translate(48.101 -0.622)" fill="none" stroke="#f55c2b" stroke-linecap="round" stroke-linejoin="round" stroke-width="1.5"/>
      <path id="Path_9697" data-name="Path 9697" d="M533.648,158.96l-61.3-.428V146.65l61.3.438Z" transform="translate(25.031 -10.358)" fill="#f73c4f"/>
      <path id="Path_9698" data-name="Path 9698" d="M477,143.795l.143,31.011a9.953,9.953,0,0,0,5.481,8.167l3.289,1.666a9.975,9.975,0,0,1,5.481,8.265l.778,12.562a8.287,8.287,0,0,0,8.1,7.772l32.885.658.351-70.156Z" transform="translate(25.478 -10.637)" fill="none" stroke="#fff" stroke-miterlimit="10" stroke-width="1.5"/>
      <rect id="Rectangle_1114" data-name="Rectangle 1114" width="20.455" height="5.021" transform="translate(476.926 139.46)" fill="#fff"/>
      <rect id="Rectangle_1115" data-name="Rectangle 1115" width="9.372" height="69.607" transform="translate(524.336 133.157)" fill="#fff" opacity="0.5"/>
      <rect id="Rectangle_1116" data-name="Rectangle 1116" width="4.692" height="69.607" transform="translate(537.403 133.157)" fill="#fff" opacity="0.5"/>
      <path id="Path_9699" data-name="Path 9699" d="M127.193,388.5,97.98,510.779h96.749l5.1-18.372,4.834,18.372h94.9L285.284,388.5Z" transform="translate(-10.976 12.904)" fill="#2a878e"/>
      <path id="Path_9700" data-name="Path 9700" d="M285.156,408.776,282.8,388.53H124.708l-.888,3.683C136.185,394.055,241.692,409.763,285.156,408.776Z" transform="translate(-8.491 12.907)" fill="#20707b"/>
      <path id="Path_9701" data-name="Path 9701" d="M193.431,486.376,188.6,456.231,164.47,451.2" transform="translate(-4.581 18.934)" fill="none" stroke="#89c4c0" stroke-linecap="round" stroke-linejoin="round" stroke-width="1.5"/>
      <line id="Line_12" data-name="Line 12" x2="19.008" y2="118.53" transform="translate(255.465 405.153)" fill="none" stroke="#89c4c0" stroke-linecap="round" stroke-linejoin="round" stroke-width="1.5"/>
      <path id="Path_9702" data-name="Path 9702" d="M239,391.92s6.106,55.905,23.02,57.4" transform="translate(2.587 13.233)" fill="none" stroke="#89c4c0" stroke-linecap="round" stroke-linejoin="round" stroke-width="1.5"/>
      <path id="Path_9703" data-name="Path 9703" d="M74.88,295s-39.9,75.428,3.014,106.242c0,0,16.717,6.687,32.48-1.688s33.85-50.161,33.85-50.161l-29.476-29.915-6.456,7.564,2.083-32.019Z" transform="translate(-14.821 3.911)" fill="#ffa297"/>
      <path id="Path_9704" data-name="Path 9704" d="M58.27,350.7c15.928-15,51.3-43.639,51.3-43.639h0L110.35,295H74.855S60.451,322.262,58.27,350.7Z" transform="translate(-14.795 3.911)" fill="#f55c2b"/>
      <path id="Path_9705" data-name="Path 9705" d="M110.336,317.33l-6.457,7.564s19.106,34.552,19.556,53.209a246.756,246.756,0,0,0,16.377-30.858Z" transform="translate(-10.409 6.059)" fill="#f55c2b"/>
      <path id="Path_9706" data-name="Path 9706" d="M80.2,285.809s-10.655-14.8-26.911-6.9c-12.562,6.106-23.129.636-24.938,5.93s11.806,9.383,21.211,8.77c0,0-20.082,17.659-23.721,30.693S36.8,325.94,36.8,325.94s-8.879,9.526-6.347,12.661c3.146,3.848,9.438,1.359,12.606-1.885,0,0-.921,6.347,4.889,5.382,3.606-.592,11.082-6.709,11.082-6.709s-5.656,7.268-1.4,8.243,10.962-2.072,21.485-13.373S114.347,296.551,80.2,285.809Z" transform="translate(-17.971 2.14)" fill="#ffa297"/>
      <path id="Path_9707" data-name="Path 9707" d="M47.43,292.15s12.442,6.27,19.731,2.949" transform="translate(-15.838 3.637)" fill="none" stroke="#f55c2b" stroke-linecap="round" stroke-linejoin="round" stroke-width="1.5"/>
      <line id="Line_13" data-name="Line 13" y1="16.914" x2="15.917" transform="translate(18.799 311.166)" fill="none" stroke="#f55c2b" stroke-linecap="round" stroke-linejoin="round" stroke-width="1.5"/>
      <path id="Path_9708" data-name="Path 9708" d="M41.53,333.391c.121-.669,21.31-22.231,21.31-22.231" transform="translate(-16.406 5.465)" fill="none" stroke="#f55c2b" stroke-linecap="round" stroke-linejoin="round" stroke-width="1.5"/>
      <line id="Line_14" data-name="Line 14" y1="15.653" x2="14.371" transform="translate(41.096 321.876)" fill="none" stroke="#f55c2b" stroke-linecap="round" stroke-linejoin="round" stroke-width="1.5"/>
      <line id="Line_15" data-name="Line 15" x2="28.512" y2="15.467" transform="translate(32.458 309.281)" fill="none" stroke="#f55c2b" stroke-linecap="round" stroke-linejoin="round" stroke-width="1.5"/>
      <path id="Path_9709" data-name="Path 9709" d="M301.321,230.618c-6.347-36.24-50.94-29.981-53.45-37.051s6.577-18.482,0-40.9c-4.922-16.826-23.984-18.383-33.149-18.087-.088-1.94-.7-4.187-.833-5.284-.208-1.633-1.228-11.06-4.571-9.328-2.949,1.524-.5,7.388-.449,9.767-.713-2.784-6.237-15.566-10.4-11.7-1.436,1.337-1.184,3.5-.373,5.656-9.975-7.048-23.732-11.411-35.8-.723-12.825,11.356-10.03,27.4-7.235,35.856a9.942,9.942,0,0,1-1.743,9.493c-5.185,6.259-8.945,16.87-8.945,16.87-30.156-.866-48.232,33.192-37.193,65.869s50.26,36.459,50.26,36.459c27.13,26.911,75.878,8.945,75.878,8.945C292.552,304.665,307.657,266.847,301.321,230.618Z" transform="translate(-10.406 -13.252)" fill="#641216"/>
      <path id="Path_9710" data-name="Path 9710" d="M195.343,217.37s-57.286,3.4-74.036,21.595S77.46,320.4,77.46,320.4l28,20.959s7.037,12.727,18.427,21.1l-1.008,46.04h170.16l-5.481-61.737a116.205,116.205,0,0,1,.263-15.007c1.8-21.978,27.273-90.018-52.891-104.137Z" transform="translate(-12.95 -3.556)" fill="#f73c4f"/>
      <path id="Path_9711" data-name="Path 9711" d="M119.85,350.385s56.168-16.793,107.656,0" transform="translate(-8.873 8.52)" fill="none" stroke="#e4911f" stroke-linecap="round" stroke-linejoin="round" stroke-width="1.5"/>
      <path id="Path_9712" data-name="Path 9712" d="M189.34,263.179c22.921,0,42.576-17.078,43.288-34.628-1.48-.362-2.982-.68-4.516-.943L188.551,217.37a262.649,262.649,0,0,0-40.109,5.974,25.21,25.21,0,0,0-.362,4.176C147.992,245.553,165.97,263.179,189.34,263.179Z" transform="translate(-6.158 -3.556)" fill="#fff"/>
      <path id="Path_9713" data-name="Path 9713" d="M225.674,229.71l-14.656-3.793,2.028-35.527H178.56L171.829,221.6c-5.042.669-10.863,1.568-16.9,2.784a22.078,22.078,0,0,0-1.1,6.742c0,15.347,16.092,27.722,35.933,27.722s35.933-12.42,35.933-27.722A12.172,12.172,0,0,0,225.674,229.71Z" transform="translate(-5.604 -6.151)" fill="#ffa297"/>
      <path id="Path_9714" data-name="Path 9714" d="M171.1,217.362c27.284-1.293,40.109-24.522,40.109-24.522h0l.143-2.4H176.9Z" transform="translate(-3.943 -6.146)" fill="#f55c2b"/>
      <path id="Path_9715" data-name="Path 9715" d="M221.337,172.708a7.18,7.18,0,0,0-5.788.647s-2.927,6.171-2.861,10.183c0,0-2.784-7.377-6.139-8.046-2.675-.537-9.57-.055-16.64-2.708a18.962,18.962,0,0,1-5.327-2.664h0l-.438-.318c-7.882-5.886-11.674-16.563-11.674-16.563l-9.712,8a15.259,15.259,0,0,0-5.547,11.137c0,1.1,0,2.192,0,3.606,0,19.589,13.647,35.472,30.485,35.472,11.894,0,22.2-7.925,27.218-19.49h0c4.242,1.436,9.131-1.71,10.962-7.027S225.568,174.122,221.337,172.708Z" transform="translate(-5.279 -9.724)" fill="#ffa297"/>
      <path id="Path_9716" data-name="Path 9716" d="M205.712,175.482c-2.675-.537-9.57-.055-16.64-2.708a18.963,18.963,0,0,1-5.327-2.664h0l-.438-.318c-7.882-5.887-11.674-16.563-11.674-16.563l-5.722,4.7c3.519,5.481,11.488,16.245,19.983,16.443,7.673.219,15.785.833,20.214,1.206a2.333,2.333,0,0,0-.395-.1Z" transform="translate(-4.443 -9.725)" fill="#f55c2b"/>
      <path id="Path_9717" data-name="Path 9717" d="M222.755,284.19l-27.4,37.72,60.608,46.182" transform="translate(-1.611 2.871)" fill="none" stroke="#063d51" stroke-linecap="round" stroke-linejoin="round" stroke-width="1.5"/>
      <path id="Path_9718" data-name="Path 9718" d="M76.494,285.561h0a6.424,6.424,0,0,0-12.244-2.74,8.529,8.529,0,0,0-2.061-.34h0a5.821,5.821,0,0,0-11.641,0,1.664,1.664,0,0,0,0,.23,6.433,6.433,0,0,0-1.666-.23,6.084,6.084,0,0,0,0,12.157,5.379,5.379,0,0,0,.943-.088,6.972,6.972,0,1,0,12.6,5.875h.307a8.167,8.167,0,0,0,15.215-2.587,6.226,6.226,0,0,0-1.491-12.222Z" transform="translate(-16.259 2.147)" fill="#fff"/>
      <path id="Path_9719" data-name="Path 9719" d="M63.214,269.257a3.8,3.8,0,1,0-3.8-3.8,3.8,3.8,0,0,0,3.8,3.8Z" transform="translate(-14.686 0.703)" fill="#fff"/>
      <path id="Path_9720" data-name="Path 9720" d="M49.7,271.048a2.258,2.258,0,1,0-1.6-.657A2.269,2.269,0,0,0,49.7,271.048Z" transform="translate(-15.838 1.171)" fill="#fff"/>
      <path id="Path_9721" data-name="Path 9721" d="M41.84,306.64a4.209,4.209,0,0,0,.132-1,4.286,4.286,0,0,0-8.473-.877h-.044a5.174,5.174,0,0,0,0,10.348,5.1,5.1,0,0,0,3.409-1.315,5.349,5.349,0,1,0,5.031-7.147Z" transform="translate(-17.68 4.526)" fill="#fff"/>
      <circle id="Ellipse_127" data-name="Ellipse 127" cx="2.971" cy="2.971" r="2.971" transform="translate(25.124 298.933)" fill="#fff"/>
      <path id="Path_9722" data-name="Path 9722" d="M79.155,274.77a1.765,1.765,0,1,0,1.765,1.765A1.765,1.765,0,0,0,79.155,274.77Z" transform="translate(-12.957 1.965)" fill="#fff"/>
      <path id="Path_9723" data-name="Path 9723" d="M53.053,315.35a2.773,2.773,0,1,0,2.773,2.773A2.773,2.773,0,0,0,53.053,315.35Z" transform="translate(-15.564 5.868)" fill="#fff"/>
      <path id="Path_9724" data-name="Path 9724" d="M21.723,312.89A3.113,3.113,0,1,0,24.836,316,3.113,3.113,0,0,0,21.723,312.89Z" transform="translate(-18.61 5.632)" fill="#fff"/>
      <path id="Path_9725" data-name="Path 9725" d="M35.1,320.41a2.192,2.192,0,1,0,2.192,2.192A2.192,2.192,0,0,0,35.1,320.41Z" transform="translate(-17.235 6.355)" fill="#fff"/>
      <path id="Path_9726" data-name="Path 9726" d="M208.485,336.977,139,296.418s-11.06-20.521-20.827-23.283-24.116-7.038-27.4-10.052c0,0-6.577-1.754-6.281,6.577s13.779,9.789,14.809,14.042c0,0-43.968,1.513-44.472,6.281s2.412,8.243,17.089,9.975c0,0-20.827-.932-22.121,3.848s7.542,8.539,15.347,8.287c0,0-7.794,0-7.542,4.275s15.829,5.273,15.829,5.273,1.765,6.029,13.823,6.785,31.91,2.269,34.924,3.771c0,0,46.741,64.072,77.643,71.613,0,0,26.133,2.762,39.2-4.527s30.912-29.147,30.912-29.147l-53.779-41.205Z" transform="translate(-15.623 0.826)" fill="#ffa297"/>
      <path id="Path_9727" data-name="Path 9727" d="M236.022,384.778a214.775,214.775,0,0,0,19.337-20.433L201.58,323.14S239.727,361.353,236.022,384.778Z" transform="translate(-1.012 6.617)" fill="#f55c2b"/>
      <line id="Line_16" data-name="Line 16" x2="18.219" y2="1.206" transform="translate(56.289 300.785)" fill="none" stroke="#f55c2b" stroke-linecap="round" stroke-linejoin="round" stroke-width="1.5"/>
      <line id="Line_17" data-name="Line 17" x2="25.212" transform="translate(48.287 312.931)" fill="none" stroke="#f55c2b" stroke-linecap="round" stroke-linejoin="round" stroke-width="1.5"/>
      <line id="Line_18" data-name="Line 18" x2="16.717" y2="0.921" transform="translate(57.791 322.468)" fill="none" stroke="#f55c2b" stroke-linecap="round" stroke-linejoin="round" stroke-width="1.5"/>
      <path id="Path_9728" data-name="Path 9728" d="M94.94,282.078s6.917.625,6.665-2.258" transform="translate(-11.269 2.451)" fill="none" stroke="#f55c2b" stroke-linecap="round" stroke-linejoin="round" stroke-width="1.5"/>
      <path id="Path_9729" data-name="Path 9729" d="M115.8,326.241s7.914.373,9.679-1.381" transform="translate(-9.262 6.783)" fill="none" stroke="#f55c2b" stroke-linecap="round" stroke-linejoin="round" stroke-width="1.5"/>
      <path id="Path_9730" data-name="Path 9730" d="M96.861,285.934A3.343,3.343,0,0,0,96.2,286a4.9,4.9,0,0,0,.143-1.1,5.053,5.053,0,1,0-10.107,0v.362a6.27,6.27,0,1,0,8.013,7.9,4,4,0,0,0,2.609.965,4.089,4.089,0,0,0,0-8.178Z" transform="translate(-12.51 2.454)" fill="#fff"/>
      <path id="Path_9731" data-name="Path 9731" d="M42,254.9c0,4.308-3.014,7.8-7.322,7.8s-7.333-3.5-7.333-7.8,7.3-12.9,7.3-12.9S42,250.594,42,254.9Z" transform="translate(-17.77 -1.187)" fill="#69a4c2"/>
      <path id="Path_9732" data-name="Path 9732" d="M62.091,265.916a5.426,5.426,0,1,1-10.819,0c0-3.19,5.4-9.526,5.4-9.526S62.091,262.726,62.091,265.916Z" transform="translate(-15.47 0.197)" fill="#69a4c2"/>
      <path id="Path_9733" data-name="Path 9733" d="M58.091,235.146a5.426,5.426,0,1,1-10.819,0c0-3.179,5.415-9.526,5.415-9.526S58.091,231.967,58.091,235.146Z" transform="translate(-15.855 -2.762)" fill="#69a4c2"/>
      <path id="Path_9734" data-name="Path 9734" d="M171.921,154.749s-2.324-15.5-9.361-17.539" transform="translate(-4.765 -11.265)" fill="none" stroke="#440a10" stroke-linecap="round" stroke-linejoin="round" stroke-width="1.5"/>
      <line id="Line_19" data-name="Line 19" y1="13.439" x2="2.094" transform="translate(114.123 269.961)" fill="none" stroke="#e4911f" stroke-linecap="round" stroke-linejoin="round" stroke-width="1.5"/>
      <path id="Path_9735" data-name="Path 9735" d="M463.771,504.771H267.62l6.687-53.812h185Z" transform="translate(5.34 18.911)" fill="#376f92"/>
      <path id="Path_9736" data-name="Path 9736" d="M459.054,451h-185l-3.782,30.419h0c7.213-6.577,188.784-13.33,188.784-13.33l1.326-1.1Z" transform="translate(5.595 18.915)" fill="#063d51"/>
      <rect id="Rectangle_1117" data-name="Rectangle 1117" width="14.864" height="35.999" transform="translate(362.2 486.961)" fill="none" stroke="#063d51" stroke-linecap="round" stroke-linejoin="round" stroke-width="1.5"/>
      <path id="Path_9737" data-name="Path 9737" d="M508.631,314.4a147.356,147.356,0,0,1-10.118-14.875c-13.044-21.759-40.953-37.73-65.19-42.1C406.576,252.592,379.8,245.84,379.8,245.84H365.7s-26.747,6.742-53.5,11.576c-24.237,4.385-52.145,20.345-65.179,42.1A147.454,147.454,0,0,1,236.888,314.4c-12.6,16.169-37.358,53.373-19.435,76.415,0,0,23.02,23.4,57.955,7.794v89.174h194.7V398.6c34.924,15.61,57.955-7.794,57.955-7.794C545.989,367.768,521.2,330.564,508.631,314.4Z" transform="translate(-0.091 -0.817)" fill="#ffd774"/>
      <circle id="Ellipse_128" data-name="Ellipse 128" cx="41.797" cy="41.797" r="41.797" transform="translate(191.722 310.289)" fill="#ffd774"/>
      <path id="Path_9738" data-name="Path 9738" d="M415,255.878c-23.7-4.593-45.174-10.008-45.174-10.008H355.705s-18.8,4.736-40.635,9.12a52.189,52.189,0,0,0,99.928.888Z" transform="translate(9.904 -0.814)" fill="#fff"/>
      <path id="Path_9739" data-name="Path 9739" d="M402.431,253.523c-18.712-3.924-33.642-7.673-33.642-7.673H354.67s-12.442,3.135-28.84,6.665a40.011,40.011,0,0,0,76.6,1.019Z" transform="translate(10.939 -0.816)" fill="#ffa297"/>
      <path id="Path_9740" data-name="Path 9740" d="M386.63,263.746h-47.3l2.225-60.816H384.4Z" transform="translate(12.237 -4.944)" fill="#ffa297"/>
      <path id="Path_9741" data-name="Path 9741" d="M341.4,202.93l-.46,12.639h0s12.65,17.769,44.417,17.769l-1.1-30.408Z" transform="translate(12.392 -4.944)" fill="#f55c2b"/>
      <ellipse id="Ellipse_129" data-name="Ellipse 129" cx="8.989" cy="11.258" rx="8.989" ry="11.258" transform="translate(330.981 166.69)" fill="#ffa297"/>
      <ellipse id="Ellipse_130" data-name="Ellipse 130" cx="8.989" cy="11.258" rx="8.989" ry="11.258" transform="translate(397.311 166.69)" fill="#ffa297"/>
      <path id="Path_9742" data-name="Path 9742" d="M403.248,150.666a27.163,27.163,0,0,0-3.519-7.816c-1.381-1.907-3.727-3.289-5-4.933a5.108,5.108,0,0,0,1.184-5.547c-1.8-5.558-7.059-5.7-12.211-5.963a33.981,33.981,0,0,0-5.974.241c-.23-1.37-1.283-2.313-3.727-2.335-4.714,0-8.419,1.973-11.915,4.626,1.008-3.837,0-8.156-4.692-4.6a23.13,23.13,0,0,0-8.5,15.818,19.128,19.128,0,0,0-9.328-1.71c-3.815.164-7.871,3.6-10.26,6.5-4.385,5.284-4.505,12.2-4.823,18.723-.351,7.1.34,13.823,3.289,20.323,1.611,3.508,3.848,6.961,5.623,10.184l57.528,1.6c4.538-2.565,5.536-4.176,7.586-7.454,2.192-3.552,2.192-8.7,2.335-12.88.121-2.576-.384-3.552.844-5.612C404.936,164.434,405.078,156.542,403.248,150.666Z" transform="translate(10.802 -12.631)" fill="#641216"/>
      <path id="Path_9743" data-name="Path 9743" d="M367.763,169.758c-17.385,3.015-21.573-11.148-21.573-11.148-13.724,8.55-15.949,17.276-17.385,23.634,0,.789-.055,1.579-.055,2.379,0,24.522,15.347,44.4,34.19,44.4s34.179-19.874,34.179-44.4a56.055,56.055,0,0,0-.987-10.545,7.9,7.9,0,0,0-7.29-6.424C383.91,167.379,376.938,168.169,367.763,169.758Z" transform="translate(11.22 -9.207)" fill="#ffa297"/>
      <path id="Path_9744" data-name="Path 9744" d="M395.012,176.467c-.11-.8-.241-1.6-.395-2.39a7.9,7.9,0,0,0-7.29-6.424c-4.933-.274-11.9.515-21.08,2.1-17.385,3.015-21.573-11.148-21.573-11.148l-.175.11a21.924,21.924,0,0,0,3.716,8.452,22.581,22.581,0,0,0,14,8.945c7.279,1.348,14.612-.811,21.924-.789A50.9,50.9,0,0,1,395.012,176.467Z" transform="translate(12.734 -9.207)" fill="#f55c2b"/>
      <path id="Path_9745" data-name="Path 9745" d="M327.513,197.323c3.4-3.431-.274-6.851-.274-6.851-4.812-3.343-3.552-17.276-13.023-20.06-5.8-1.7-14.25,5.656-20.027,11.63l-2.368-1.1a10.008,10.008,0,0,0-10.775,0c-10.216-5.952-16.9-.745-16.9-.745h-4.648c-11.883,1.1-8.167,11.521-14.119,19.731s-6.5,13.154-9.471,35.483-53.132,85.831-40.866,122.991,43.091,32.326,43.091,32.326c42.543-8.178,40.877-57,43.1-81.008s9.482-62.417,9.482-62.417c15.04,2.192,25.815-14.864,27.679-23.962S326.57,208.3,329.168,205.7C331.426,203.363,331.711,199.713,327.513,197.323Zm-15.434,6.807c-1.3,4.089-8.923,5.393-8.923,5.393l2.116-14.7c-.055.23-.066.055,0-1.458l4.078-4.385,3.146,4.8a10.764,10.764,0,0,0,3.486,4.6,13.154,13.154,0,0,0-3.9,5.744Z" transform="translate(-1.826 -8.096)" fill="#ffa297"/>
      <path id="Path_9746" data-name="Path 9746" d="M258.784,179.29s9.942,2.51,9.657,10.3.669,32.3-11.85,29.268c-9.745-2.368-7.794-12.266-7.235-18.394" transform="translate(3.532 -7.218)" fill="none" stroke="#f55c2b" stroke-linecap="round" stroke-linejoin="round" stroke-width="1.5"/>
      <path id="Path_9747" data-name="Path 9747" d="M264.8,211.266s2.532,5.58,10.468,5.163,9.339-10.041,9.055-15.752-.274-16.618-10.173-20.707" transform="translate(5.069 -7.153)" fill="none" stroke="#f55c2b" stroke-linecap="round" stroke-linejoin="round" stroke-width="1.5"/>
      <path id="Path_9748" data-name="Path 9748" d="M281.28,208.076s1.1,4.023,6.336,4.308,7.059-6.314,7.059-6.314" transform="translate(6.654 -4.642)" fill="none" stroke="#f55c2b" stroke-linecap="round" stroke-linejoin="round" stroke-width="1.5"/>
      <path id="Path_9749" data-name="Path 9749" d="M285.32,181s11.28,4.308,11.126,11.324" transform="translate(7.042 -7.054)" fill="none" stroke="#f55c2b" stroke-linecap="round" stroke-linejoin="round" stroke-width="1.5"/>
      <path id="Path_9750" data-name="Path 9750" d="M284.563,240.878s-6.457-2.412-8.134-4.648c0,0-13.932,3.9-19.369,1.392" transform="translate(4.324 -1.742)" fill="none" stroke="#f55c2b" stroke-linecap="round" stroke-linejoin="round" stroke-width="1.5"/>
      <path id="Path_9751" data-name="Path 9751" d="M277.59,212.34s2.85,7.1,0,13.647" transform="translate(6.299 -4.039)" fill="none" stroke="#f55c2b" stroke-linecap="round" stroke-linejoin="round" stroke-width="1.5"/>
      <path id="Path_9752" data-name="Path 9752" d="M305.24,196.184s5.558-3.869,11.488-1.1" transform="translate(8.958 -5.795)" fill="none" stroke="#f55c2b" stroke-linecap="round" stroke-linejoin="round" stroke-width="1.5"/>
      <path id="Path_9753" data-name="Path 9753" d="M299.329,187.927a30.422,30.422,0,0,1-1.589-6.347" transform="translate(8.237 -6.998)" fill="none" stroke="#f55c2b" stroke-linecap="round" stroke-linejoin="round" stroke-width="1.5"/>
      <path id="Path_9754" data-name="Path 9754" d="M269.77,386.905a102.485,102.485,0,0,0,10.874-19.435" transform="translate(5.547 10.881)" fill="none" stroke="#c49a32" stroke-linecap="round" stroke-linejoin="round" stroke-width="1.5"/>
      <path id="Path_9755" data-name="Path 9755" d="M218.06,382.987s49.624,10.732,62.482-43.847" transform="translate(0.573 8.156)" fill="none" stroke="#c49a32" stroke-linecap="round" stroke-linejoin="round" stroke-width="1.5"/>
      <circle id="Ellipse_131" data-name="Ellipse 131" cx="41.797" cy="41.797" r="41.797" transform="translate(470.086 310.289)" fill="#ffd774"/>
      <path id="Path_9756" data-name="Path 9756" d="M400.143,205.628c2.609,2.6,8.923,8.539,10.775,17.649s12.639,26.188,27.69,23.963c0,0,7.246,38.454,9.471,62.417s.559,72.83,43.1,81.008c0,0,30.836,4.823,43.1-32.326s-37.917-100.651-40.887-122.991-3.53-27.306-9.471-35.483-2.192-18.569-14.119-19.731h-4.648s-6.687-5.207-16.9.745a10.008,10.008,0,0,0-10.775,0l-2.368,1.1c-5.733-5.974-14.25-13.33-20.016-11.63-9.482,2.784-8.221,16.717-13.034,20.06,0,0-3.672,3.42-.263,6.851C397.589,199.719,397.884,203.37,400.143,205.628Zm13.154-7.136a10.764,10.764,0,0,0,3.486-4.6l3.146-4.8,4.089,4.385c.11,1.513.088,1.688,0,1.458l2.1,14.7s-7.673-1.3-8.912-5.393a13.329,13.329,0,0,0-3.913-5.744Z" transform="translate(17.93 -8.103)" fill="#ffa297"/>
      <path id="Path_9757" data-name="Path 9757" d="M460.158,179.29s-9.942,2.51-9.657,10.3-.658,32.3,11.85,29.268c9.745-2.368,7.794-12.266,7.235-18.394" transform="translate(22.929 -7.218)" fill="none" stroke="#f55c2b" stroke-linecap="round" stroke-linejoin="round" stroke-width="1.5"/>
      <path id="Path_9758" data-name="Path 9758" d="M454.136,211.266s-2.521,5.58-10.469,5.163-9.328-10.041-9.054-15.752.274-16.618,10.173-20.707" transform="translate(21.398 -7.153)" fill="none" stroke="#f55c2b" stroke-linecap="round" stroke-linejoin="round" stroke-width="1.5"/>
      <path id="Path_9759" data-name="Path 9759" d="M437.176,208.076s-1.1,4.023-6.347,4.308-7.059-6.314-7.059-6.314" transform="translate(20.359 -4.642)" fill="none" stroke="#f55c2b" stroke-linecap="round" stroke-linejoin="round" stroke-width="1.5"/>
      <path id="Path_9760" data-name="Path 9760" d="M432.875,181s-11.28,4.308-11.115,11.324" transform="translate(20.165 -7.054)" fill="none" stroke="#f55c2b" stroke-linecap="round" stroke-linejoin="round" stroke-width="1.5"/>
      <path id="Path_9761" data-name="Path 9761" d="M435.08,240.878s6.457-2.412,8.123-4.648c0,0,13.932,3.9,19.37,1.392" transform="translate(21.446 -1.742)" fill="none" stroke="#f55c2b" stroke-linecap="round" stroke-linejoin="round" stroke-width="1.5"/>
      <path id="Path_9762" data-name="Path 9762" d="M439.751,212.34s-2.85,7.1,0,13.647" transform="translate(21.774 -4.039)" fill="none" stroke="#f55c2b" stroke-linecap="round" stroke-linejoin="round" stroke-width="1.5"/>
      <path id="Path_9763" data-name="Path 9763" d="M413.007,196.184s-5.558-3.869-11.477-1.1" transform="translate(18.22 -5.795)" fill="none" stroke="#f55c2b" stroke-linecap="round" stroke-linejoin="round" stroke-width="1.5"/>
      <path id="Path_9764" data-name="Path 9764" d="M418,187.927a29.709,29.709,0,0,0,1.589-6.347" transform="translate(19.804 -6.998)" fill="none" stroke="#f55c2b" stroke-linecap="round" stroke-linejoin="round" stroke-width="1.5"/>
      <path id="Path_9765" data-name="Path 9765" d="M448.4,386.905A102.484,102.484,0,0,1,437.53,367.47" transform="translate(21.682 10.881)" fill="none" stroke="#c49a32" stroke-linecap="round" stroke-linejoin="round" stroke-width="1.5"/>
      <path id="Path_9766" data-name="Path 9766" d="M504.642,382.987s-49.624,10.732-62.482-43.847" transform="translate(22.127 8.156)" fill="none" stroke="#c49a32" stroke-linecap="round" stroke-linejoin="round" stroke-width="1.5"/>
      <line id="Line_20" data-name="Line 20" x1="0.647" y2="5.207" transform="translate(350.92 248.388)" fill="none" stroke="#f55c2b" stroke-linecap="round" stroke-linejoin="round" stroke-width="1.5"/>
      <line id="Line_21" data-name="Line 21" x2="0.351" y2="8.572" transform="translate(398.363 245.023)" fill="none" stroke="#f55c2b" stroke-linecap="round" stroke-linejoin="round" stroke-width="1.5"/>
      <rect id="Rectangle_1118" data-name="Rectangle 1118" width="194.693" height="43.727" transform="translate(275.317 402.116)" fill="#fff"/>
      <path id="Path_9767" data-name="Path 9767" d="M332.1,192.63l-16.377,2.532,23.272,16.191" transform="translate(9.966 -5.935)" fill="none" stroke="#2a878e" stroke-linecap="round" stroke-linejoin="round" stroke-width="1.5"/>
      <path id="Path_9768" data-name="Path 9768" d="M387.955,192.63l16.377,2.532L381.06,211.353" transform="translate(16.251 -5.935)" fill="none" stroke="#2a878e" stroke-linecap="round" stroke-linejoin="round" stroke-width="1.5"/>
      <path id="Path_9769" data-name="Path 9769" d="M328.75,192.021c5.01,18.24,13.023,34.036,34.19,34.036,21.551,0,29.169-15.8,34.179-34.036L362.94,189.39Z" transform="translate(11.22 -6.247)" fill="#89c4c0"/>
      <path id="Path_9770" data-name="Path 9770" d="M387.633,191.31c-4.735,17.254-11.74,32.885-30.693,34.42,1.1.088,2.192.143,3.288.143,21.551,0,29.169-15.8,34.179-34.036Z" transform="translate(13.931 -6.062)" fill="#2a878e"/>
      <line id="Line_22" data-name="Line 22" x2="48.594" transform="translate(351.567 196.034)" fill="none" stroke="#2a878e" stroke-linecap="round" stroke-linejoin="round" stroke-width="1.5"/>
      <line id="Line_23" data-name="Line 23" x2="39.649" transform="translate(357.234 206.996)" fill="none" stroke="#2a878e" stroke-linecap="round" stroke-linejoin="round" stroke-width="1.5"/>
    </g>
  </g>
</svg>
